<?xml version="1.0" encoding="UTF-8" standalone="no"?><!DOCTYPE svg PUBLIC "-//W3C//DTD SVG 1.1//EN" "http://www.w3.org/Graphics/SVG/1.1/DTD/svg11.dtd"><svg width="100%" height="100%" viewBox="0 0 201 200" version="1.1" xmlns="http://www.w3.org/2000/svg" xmlns:xlink="http://www.w3.org/1999/xlink" xml:space="preserve" xmlns:serif="http://www.serif.com/" style="fill-rule:evenodd;clip-rule:evenodd;stroke-linejoin:round;stroke-miterlimit:2;"><path d="M198.054,70.135c-2.416,-18.472 -8.977,-35.39 -20.543,-47.647c-12.257,-11.565 -29.175,-18.126 -47.646,-20.542c-17.781,-2.418 -29.865,-1.899 -29.865,-1.899c0,0 -12.084,-0.519 -29.865,1.899c-18.472,2.416 -35.39,8.977 -47.647,20.542c-11.566,12.257 -18.126,29.175 -20.543,47.647c-2.417,17.781 -1.898,29.865 -1.898,29.865c0,0 -0.519,12.084 1.898,29.865c2.417,18.471 8.977,35.389 20.543,47.647c12.257,11.565 29.175,18.126 47.647,20.542c17.781,2.418 29.865,1.899 29.865,1.899c0,0 12.084,0.519 29.865,-1.899c18.471,-2.416 35.389,-8.977 47.646,-20.542c11.566,-12.258 18.127,-29.176 20.543,-47.647c2.418,-17.781 1.899,-29.865 1.899,-29.865c0,0 0.519,-12.084 -1.899,-29.865" style="fill:#7882ff;fill-rule:nonzero;"/><path d="M151.099,85.154c7.941,28.484 -8.632,57.831 -37.116,65.772c-28.312,7.941 -57.831,-8.804 -65.6,-37.115c-7.941,-28.485 8.632,-57.832 37.116,-65.773c28.312,-7.769 57.831,8.804 65.6,37.116" style="fill:#fff;fill-rule:nonzero;"/><path d="M135.389,136.943c-13.465,0 -29.865,-3.453 -46.265,-9.668c-32.627,-12.429 -61.802,-35.216 -54.379,-54.724c2.071,-5.524 8.804,-14.5 30.728,-14.5c13.466,0 30.038,3.452 46.266,9.666c32.627,12.258 61.802,35.045 54.379,54.725c-2.072,5.352 -8.805,14.501 -30.729,14.501Zm-69.916,-61.974c-10.012,0 -14.501,2.416 -14.846,3.624c-1.381,3.626 11.739,20.544 44.539,32.973c14.328,5.352 29.002,8.459 40.223,8.459c10.185,0 14.501,-2.417 15.019,-3.625c1.381,-3.625 -11.912,-20.543 -44.538,-32.973c-14.329,-5.351 -29.002,-8.458 -40.397,-8.458" style="fill:#4d5cc1;fill-rule:nonzero;"/><path d="M50.627,78.767l99.608,37.805c3.454,-9.839 3.971,-20.715 0.864,-31.418c-7.769,-28.312 -37.288,-44.885 -65.6,-37.116c-16.4,4.66 -28.83,16.227 -34.872,30.729" style="fill:#fff;fill-rule:nonzero;"/></svg>