<?xml version="1.0" encoding="utf-8"?>
<!DOCTYPE svg PUBLIC "-//W3C//DTD SVG 1.1//EN" "http://www.w3.org/Graphics/SVG/1.1/DTD/svg11.dtd">
<svg xmlns="http://www.w3.org/2000/svg" xmlns:xlink="http://www.w3.org/1999/xlink" version="1.1" baseProfile="full" width="1012.47" height="1012.47" viewBox="0 0 1012.47 1012.47" enable-background="new 0 0 1012.47 1012.47" xml:space="preserve">
	<path fill="#7882FE" fill-opacity="1" stroke-width="0.2" stroke-linejoin="round" d="M 1002.62,355.046C 990.385,261.537 957.176,175.893 898.624,113.844L 898.624,113.844C 836.575,55.2918 750.932,22.0828 657.422,9.84799C 567.408,-2.38697 506.233,0.234825 506.233,0.234825C 506.233,0.234825 445.059,-2.38697 355.045,9.84799C 261.536,22.0828 175.893,55.2918 113.844,113.844L 113.844,113.844C 55.291,175.893 22.0825,261.537 9.84766,355.046C -2.3877,445.06 0.234375,506.234 0.234375,506.234C 0.234375,506.234 -2.3877,567.409 9.84766,657.423C 22.0825,750.932 55.291,836.576 113.844,898.624L 113.844,898.624C 175.893,957.177 261.536,990.386 355.045,1002.62C 445.059,1014.86 506.233,1012.23 506.233,1012.23C 506.233,1012.23 567.408,1014.86 657.422,1002.62C 750.932,990.386 836.575,957.177 898.624,898.624L 898.624,898.624C 957.176,836.576 990.385,750.932 1002.62,657.423C 1014.86,567.409 1012.23,506.234 1012.23,506.234C 1012.23,506.234 1014.86,445.06 1002.62,355.046 Z "/>
	<g>
		<path fill="#FFFFFF" fill-opacity="1" stroke-width="0.2" stroke-linejoin="round" d="M 244.725,529.075C 256.3,663.354 368.966,768.732 506.244,768.732C 577.351,768.732 641.854,740.46 689.125,694.543C 621.198,699.224 536.035,685.75 448.952,652.89C 364.019,620.841 292.639,576.154 244.725,529.075 Z "/>
		<path fill="#FFFFFF" fill-opacity="1" stroke-width="0.2" stroke-linejoin="round" d="M 766.499,471.821C 767.973,483.084 768.734,494.571 768.734,506.236C 768.734,541.329 761.848,574.814 749.352,605.413C 726.363,607.965 702.846,609.287 678.92,609.287C 497.633,609.287 339.769,533.399 257.777,421.313C 273.091,376.498 300.189,337.144 335.375,306.949C 381.292,267.545 440.983,243.736 506.235,243.736C 639.545,243.736 749.645,343.11 766.499,471.821 Z "/>
		<path fill="#4D5CC1" fill-opacity="1" stroke-width="0.2" stroke-linejoin="round" d="M 244.725,529.077C 192.428,477.69 168.089,423.454 184.602,379.694C 201.634,334.557 258.655,309.765 335.384,306.948C 300.198,337.143 273.1,376.497 257.786,421.312C 339.777,533.398 497.642,609.286 678.93,609.286C 702.854,609.286 726.372,607.964 749.361,605.412C 761.856,574.813 768.743,541.328 768.743,506.235C 768.743,494.57 767.981,483.083 766.507,471.82C 819.669,523.57 844.53,578.322 827.885,622.431C 811.755,665.177 759.76,689.676 689.125,694.544C 621.198,699.225 536.035,685.751 448.952,652.891C 364.02,620.843 292.639,576.156 244.725,529.077 Z "/>
	</g>
	<g>
		<path fill="#363636" fill-opacity="1" stroke-width="0.2" stroke-linejoin="round" d="M 498.17,640.209L 744.974,640.209C 769.028,640.209 788.528,659.709 788.528,683.762L 788.528,766.03C 788.528,790.084 769.028,809.584 744.974,809.584L 498.17,809.584C 474.116,809.584 454.616,790.084 454.616,766.03L 454.616,683.762C 454.616,659.709 474.116,640.209 498.17,640.209 Z "/>
		<g>
			<path fill="#FFFFFF" fill-opacity="1" stroke-width="0.2" stroke-linejoin="round" d="M 537.163,722.974C 547.012,725.901 551.936,731.907 551.936,740.992C 551.936,748.608 549.639,754.505 545.042,758.683C 540.447,762.861 534.001,764.95 525.704,764.95L 501.569,764.95L 493.317,764.95L 493.317,684.842L 508.409,684.842L 522.071,684.842C 530.146,684.842 536.386,686.849 540.793,690.862C 545.202,694.876 547.405,700.562 547.405,707.919C 547.405,715.359 543.991,720.377 537.163,722.974 Z M 508.409,698.258L 508.409,717.562L 522.071,717.562C 528.677,717.562 531.98,714.401 531.98,708.078C 531.98,701.531 528.418,698.258 521.297,698.258L 508.409,698.258 Z M 526.479,751.534C 533.084,751.534 536.386,748.161 536.386,741.415C 536.386,734.457 532.826,730.979 525.704,730.979L 508.409,730.979L 508.409,751.534L 526.479,751.534 Z "/>
			<path fill="#FFFFFF" fill-opacity="1" stroke-width="0.2" stroke-linejoin="round" d="M 616.18,751.534L 616.18,764.95L 564.401,764.95L 564.401,684.842L 614.645,684.842L 614.645,698.258L 579.598,698.258L 579.598,717.686L 605.39,717.686L 605.39,731.102L 579.598,731.102L 579.598,751.534L 616.18,751.534 Z "/>
			<path fill="#FFFFFF" fill-opacity="1" stroke-width="0.2" stroke-linejoin="round" d="M 675.624,698.258L 655.792,698.258L 655.792,764.95L 640.577,764.95L 640.577,698.258L 620.745,698.258L 620.745,684.842L 655.792,684.842L 675.624,684.842L 675.624,698.258 Z "/>
			<path fill="#FFFFFF" fill-opacity="1" stroke-width="0.2" stroke-linejoin="round" d="M 728.672,747.903L 700.235,747.903L 695.175,764.95L 679.309,764.95L 706.3,684.842L 722.836,684.842L 749.827,764.95L 733.854,764.95L 728.672,747.903 Z M 724.811,734.487L 714.463,700.056L 704.202,734.487L 724.811,734.487 Z "/>
		</g>
	</g>
</svg>
